<?xml version="1.0" encoding="utf-8"?>
<!-- Generator: Adobe Illustrator 25.2.0, SVG Export Plug-In . SVG Version: 6.00 Build 0)  -->
<svg version="1.1" id="Layer_1" xmlns="http://www.w3.org/2000/svg" xmlns:xlink="http://www.w3.org/1999/xlink" x="0px" y="0px"
	 viewBox="0 0 360 360" style="enable-background:new 0 0 360 360;" xml:space="preserve">
<style type="text/css">
	.st0{fill:#FFFFFF;}
	.st1{fill:#FFF;}
</style>
<g>
	<path class="st0" d="M183.48,140.24c-0.14,2.22-0.06,4.46-0.06,6.96c0.58-0.24,0.81-0.31,1.01-0.43
		c8.22-4.78,16.44-9.56,24.67-14.33c2.21-1.28,3.18-3.2,3.16-5.72c-0.03-5.15-0.01-10.31-0.01-15.46c0-5.07-1.78-7.43-6.8-8.89
		c0,7.29-0.05,14.57,0.04,21.83c0.02,1.81-0.59,2.89-2.17,3.78c-6.22,3.52-12.39,7.13-18.55,10.76
		C184.22,139.05,183.52,139.7,183.48,140.24z"/>
	<path class="st0" d="M194.5,106.48c-0.12,7.09-0.04,14.19-0.04,21.64c2.22-1.28,4.14-2.31,5.95-3.49c0.43-0.28,0.73-1.08,0.73-1.65
		c0.05-6.68,0.02-13.35,0.03-20.03c0.01-2.21-0.94-3.9-2.79-4.99c-5.22-3.09-10.42-6.2-15.76-9.08c-1.2-0.65-3-0.76-4.34-0.4
		c-1.72,0.46-3.24,1.65-5.11,2.67c6.48,3.77,12.56,7.41,18.75,10.85C193.84,103.05,194.54,104.32,194.5,106.48z"/>
	<path class="st0" d="M211.63,135.93c-9.12,5.28-18.23,10.56-27.33,15.87c-0.4,0.23-0.83,0.8-0.84,1.23
		c-0.08,2.23-0.04,4.46-0.04,7.05c0.88-0.48,1.4-0.75,1.92-1.04c7.49-4.35,14.98-8.69,22.46-13.04c4.25-2.47,5.4-5.28,4.17-10.13
		C211.86,135.88,211.73,135.88,211.63,135.93z"/>
	<path class="st0" d="M149.86,112.61c5.08-2.95,10.28-5.72,15.19-8.93c2.84-1.85,5.02-1.8,7.85,0.01
		c5.5,3.51,11.25,6.63,17.26,10.12c0-2.36-0.07-4.36,0.03-6.34c0.05-1.11-0.31-1.74-1.28-2.29c-5.53-3.15-11.03-6.33-16.5-9.58
		c-2.33-1.38-4.5-1.4-6.83-0.01c-4.52,2.7-9.1,5.31-13.66,7.96c-4.03,2.34-5.16,5.27-3.79,10
		C148.71,113.23,149.29,112.94,149.86,112.61z"/>
	<path class="st0" d="M170.83,136.15c-0.15-0.1-0.31-0.21-0.48-0.26c-4.15-1.37-5.55-4.22-4.86-8.46c0.31-1.9,0.05-3.89,0.05-6.18
		c-2.29,1.32-4.2,2.35-6.02,3.54c-0.42,0.28-0.69,1.08-0.7,1.65c-0.07,3.09-0.1,6.19,0.02,9.28c0.03,0.67,0.55,1.58,1.12,1.94
		c2.77,1.74,5.64,3.33,8.47,4.97c2.61,1.52,5.21,3.03,8.07,4.7c0-2.8,0.73-5.58-0.22-7.54
		C175.46,138.09,172.72,137.33,170.83,136.15z"/>
	<path class="st0" d="M175.22,151.48c-6.31-3.6-12.57-7.31-18.88-10.92c-1.32-0.75-1.89-1.71-1.87-3.22c0.05-4.12,0.06-8.25,0-12.37
		c-0.02-1.57,0.52-2.6,1.91-3.38c3.65-2.03,7.24-4.18,10.86-6.28c2.77-1.61,5.53-3.22,8.49-4.94c-1.98-1.15-3.79-2.14-5.52-3.24
		c-0.88-0.57-1.55-0.55-2.46-0.01c-5.47,3.24-10.97,6.44-16.5,9.6c-2.39,1.37-3.55,3.27-3.5,6.07c0.09,5.52,0.1,11.04,0,16.56
		c-0.05,2.88,1.15,4.79,3.6,6.2c7.88,4.52,15.72,9.12,23.58,13.68c0.48,0.28,0.98,0.51,1.66,0.86c0-2.28-0.07-4.23,0.03-6.16
		C176.68,152.72,176.26,152.07,175.22,151.48z"/>
	<path class="st0" d="M135.15,257.57c-0.56-0.35-1.11-0.7-1.67-1.07c-28.2-18.41-37.06-36.81-37.06-61.35
		c0-0.32-0.01-0.64-0.01-0.96c-4.57-1.31-11.39-5.42-21.54-14.3c-35.9-31.45-28.83-89.57-28.83-89.57s26.74,39.03,39.66,48.04
		c0.44,0.3,0.86,0.64,1.29,1.01c-0.09-1.98-0.02-3.84,0.27-5.57c2.29-14.02,22.9-66.61,92.74-66.61s90.45,52.59,92.74,66.61
		c0.28,1.73,0.35,3.59,0.27,5.57c0.42-0.36,0.85-0.7,1.29-1.01c12.92-9.02,39.66-48.04,39.66-48.04s7.08,58.12-28.83,89.57
		c-10.14,8.89-16.97,12.99-21.54,14.3c0,0.32-0.01,0.64-0.01,0.96c0,24.54-8.86,42.95-37.06,61.35c-0.56,0.37-1.12,0.72-1.67,1.07
		c-0.99,7.84-2.73,30.21,7.94,39.47c10.48,9.09,49.96,5.41,73.16,11.3C339.3,275.67,360,230.14,360,179.77
		c0-99.41-80.59-180-180-180S0,80.36,0,179.77c0,50.37,20.7,95.9,54.05,128.57c23.2-5.89,62.68-2.21,73.16-11.3
		C137.88,287.78,136.14,265.41,135.15,257.57z"/>
	<path d="M305.95,308.34c-23.2-5.89-62.68-2.21-73.16-11.3c-10.67-9.26-8.93-31.63-7.94-39.47c0.56-0.35,1.11-0.7,1.67-1.07
		c28.2-18.41,37.06-36.81,37.06-61.35c0-0.32,0.01-0.64,0.01-0.96c4.57-1.31,11.39-5.42,21.54-14.3
		c35.9-31.45,28.83-89.57,28.83-89.57s-26.74,39.03-39.66,48.04c-0.44,0.3-0.86,0.64-1.29,1.01c0.09-1.98,0.02-3.84-0.27-5.57
		c-2.29-14.02-22.9-66.61-92.74-66.61s-90.45,52.59-92.74,66.61c-0.28,1.73-0.35,3.59-0.27,5.57c-0.42-0.36-0.85-0.7-1.29-1.01
		c-12.92-9.02-39.66-48.04-39.66-48.04s-7.08,58.12,28.83,89.57c10.14,8.89,16.97,12.99,21.54,14.3c0,0.32,0.01,0.64,0.01,0.96
		c0,24.54,8.86,42.95,37.06,61.35c0.56,0.37,1.12,0.72,1.67,1.07c0.99,7.84,2.73,30.21-7.94,39.47
		c-10.48,9.09-49.96,5.41-73.16,11.3c32.46,31.81,76.91,51.43,125.95,51.43C229.04,359.77,273.49,340.15,305.95,308.34z
		 M207.8,145.99c-7.49,4.35-14.97,8.7-22.46,13.04c-0.51,0.3-1.04,0.57-1.92,1.04c0-2.58-0.04-4.82,0.04-7.05
		c0.02-0.43,0.45-1,0.84-1.23c9.1-5.31,18.21-10.59,27.33-15.87c0.09-0.05,0.23-0.05,0.34-0.07
		C213.21,140.71,212.05,143.52,207.8,145.99z M205.48,124.19c-0.09-7.27-0.04-14.54-0.04-21.83c5.02,1.47,6.8,3.82,6.8,8.89
		c0,5.15-0.02,10.31,0.01,15.46c0.02,2.53-0.95,4.44-3.16,5.72c-8.22,4.77-16.44,9.56-24.67,14.33c-0.2,0.12-0.43,0.19-1.01,0.43
		c0-2.5-0.08-4.73,0.06-6.96c0.03-0.54,0.73-1.18,1.29-1.51c6.16-3.63,12.33-7.24,18.55-10.76
		C204.89,127.08,205.5,126,205.48,124.19z M178.3,88.47c1.33-0.36,3.14-0.25,4.34,0.4c5.33,2.88,10.54,5.99,15.76,9.08
		c1.85,1.1,2.79,2.79,2.79,4.99c-0.02,6.68,0.01,13.35-0.03,20.03c0,0.56-0.3,1.37-0.73,1.65c-1.82,1.18-3.73,2.21-5.95,3.49
		c0-7.45-0.07-14.54,0.04-21.64c0.04-2.16-0.67-3.42-2.57-4.49c-6.19-3.45-12.27-7.09-18.75-10.85
		C175.06,90.12,176.58,88.93,178.3,88.47z M151.91,103.55c4.56-2.65,9.14-5.26,13.66-7.96c2.33-1.39,4.51-1.37,6.83,0.01
		c5.47,3.25,10.98,6.43,16.5,9.58c0.98,0.56,1.34,1.18,1.28,2.29c-0.09,1.99-0.03,3.98-0.03,6.34c-6.01-3.49-11.76-6.61-17.26-10.12
		c-2.83-1.81-5.01-1.86-7.85-0.01c-4.91,3.21-10.11,5.98-15.19,8.93c-0.57,0.33-1.15,0.62-1.75,0.94
		C146.75,108.81,147.88,105.89,151.91,103.55z M176.62,153.91c-0.1,1.93-0.03,3.88-0.03,6.16c-0.68-0.35-1.18-0.58-1.66-0.86
		c-7.86-4.56-15.7-9.16-23.58-13.68c-2.45-1.41-3.65-3.32-3.6-6.2c0.1-5.52,0.09-11.04,0-16.56c-0.05-2.8,1.11-4.7,3.5-6.07
		c5.53-3.15,11.02-6.35,16.5-9.6c0.91-0.54,1.57-0.55,2.46,0.01c1.73,1.11,3.54,2.09,5.52,3.24c-2.95,1.72-5.72,3.33-8.49,4.94
		c-3.61,2.1-7.2,4.25-10.86,6.28c-1.4,0.78-1.94,1.81-1.91,3.38c0.06,4.12,0.06,8.25,0,12.37c-0.02,1.51,0.55,2.47,1.87,3.22
		c6.31,3.61,12.57,7.31,18.88,10.92C176.26,152.07,176.68,152.72,176.62,153.91z M176.51,147.33c-2.86-1.66-5.46-3.18-8.07-4.7
		c-2.83-1.64-5.7-3.23-8.47-4.97c-0.57-0.36-1.1-1.27-1.12-1.94c-0.12-3.09-0.09-6.19-0.02-9.28c0.01-0.57,0.28-1.37,0.7-1.65
		c1.81-1.19,3.73-2.22,6.02-3.54c0,2.29,0.26,4.28-0.05,6.18c-0.69,4.24,0.71,7.09,4.86,8.46c0.17,0.06,0.32,0.17,0.48,0.26
		c1.89,1.18,4.63,1.94,5.46,3.64C177.24,141.75,176.51,144.53,176.51,147.33z"/>
</g>
<g>
	<path class="st0" d="M139.62,234.55l4.55-4l7.32,5.36l5.83-4.37l8.71,9.23l9.24-8.9l9.53,7.72l9.45-10.17l7.5,5.2l8.24-9.4
		l8.64,3.95c9.4-9.02,14.16-18.03,14.16-18.03c-26.41,18.75-63.47,18.54-77.24,18.54c-13.77,0-28.4-8.74-28.4-8.74
		C130.42,226.16,134.68,230.74,139.62,234.55z"/>
	<path class="st0" d="M210.72,228.65l-8.51,9.71l-7.56-5.24l-9.58,10.31l-9.64-7.81l-9.5,9.15l-8.94-9.47l-5.49,4.12l-7.18-5.26
		l-2.39,2.1c15,10.43,35.36,14.11,53.24,7.77c8.5-3.01,15.57-7.8,21.21-12.79L210.72,228.65z"/>
</g>
<g>
	<path class="st1" d="M205.42,193.45c0,0-2.86-14.16,15.59-27.31c18.45-13.15,28.93-5.02,28.93-5.02S249.6,194.39,205.42,193.45z"/>
	<path class="st1" d="M154.58,193.45c0,0,2.86-14.16-15.59-27.31c-18.45-13.15-28.93-5.02-28.93-5.02S110.4,194.39,154.58,193.45z"
		/>
</g>
<path class="st1" d="M123.25,82.74l0.67-0.75c0,0-29.66-15.39-21.17-45.1c0,0-22.92,27.65-2.65,68.37
	C105.59,97.43,113.14,89.4,123.25,82.74z"/>
<path class="st1" d="M259.91,105.26c20.26-40.72-2.65-68.37-2.65-68.37c8.49,29.71-21.17,45.1-21.17,45.1l0.67,0.75
	C246.86,89.4,254.41,97.43,259.91,105.26z"/>
</svg>
